<?xml version="1.0" encoding="utf-8"?>
<!-- Generator: Adobe Illustrator 16.0.4, SVG Export Plug-In . SVG Version: 6.00 Build 0)  -->
<!DOCTYPE svg PUBLIC "-//W3C//DTD SVG 1.1//EN" "http://www.w3.org/Graphics/SVG/1.1/DTD/svg11.dtd">
<svg version="1.1" id="Calque_1" xmlns="http://www.w3.org/2000/svg" xmlns:xlink="http://www.w3.org/1999/xlink" x="0px" y="0px"
	 width="264.632px" height="113.33px" viewBox="8.334 8.989 264.632 113.33" enable-background="new 8.334 8.989 264.632 113.33"
	 xml:space="preserve">
<g opacity="0.8">
	<g>
		<rect x="8.334" y="9.001" fill="#B8B8B8" width="21.333" height="55.999"/>
	</g>
	<g>
		<rect x="24.5" y="36.334" fill="#B8B8B8" width="22.167" height="9.167"/>
	</g>
	<g>
		<rect x="24.5" y="8.989" fill="#B8B8B8" width="28.334" height="10.512"/>
	</g>
</g>
<g opacity="0.8">
	<polygon fill="#B8B8B8" points="134.669,64.246 113.752,64.161 113.277,31.944 100.168,46.995 87.663,31.161 87.585,64.245 
		66.669,64.246 66.669,9.246 88.836,9.246 102.002,24.995 112.586,9.246 134.669,9.246 	"/>
</g>
<g>
	<path fill="#004386" stroke="#004386" stroke-miterlimit="10" d="M50.583,79.333c0,0-7.539-0.053-7.75-0.125
		c0,0,1.365-9.215,4.125-12.666c2.167-2.709,4.496-4.57,10.375-4.459c6.625,0.125,10,0.375,11.25,5.125S67.5,78.792,66,81.417
		s-3.417,4.791-5.667,6.791s-5.25,4.75-6.75,6.25s-5.75,4.25-7.75,7.625s-3.084,6.795-3.709,9.67s-0.458,7.208-0.458,7.208
		l8.867-0.084c0,0,1.925-14.355,2.425-14.794s7.188-0.5,7.75,0s-2,15.375-2.75,16s-24.25,1.438-25,0.5s0.666-13.122,3.916-18.372
		s8.623-10.384,11.373-12.384s8.047-7.116,9.672-9.741s2.874-6.584,2.999-8.959s0.625-6.25-0.375-6.875s-4.834-0.544-5.584-0.044
		c-1.151,0.768-2.447,3.642-3.083,6.167C50.708,75,50.583,79.333,50.583,79.333z"/>
	<path fill="#004386" stroke="#004386" stroke-width="0.25" stroke-miterlimit="10" d="M50.583,79.333c0,0-7.539-0.053-7.75-0.125
		c0,0,1.365-9.215,4.125-12.666c2.167-2.709,4.496-4.57,10.375-4.459c6.625,0.125,10,0.375,11.25,5.125S67.5,78.792,66,81.417
		s-3.417,4.791-5.667,6.791s-5.25,4.75-6.75,6.25s-5.75,4.25-7.75,7.625s-3.084,6.795-3.709,9.67s-0.458,7.208-0.458,7.208
		l8.867-0.084c0,0,1.925-14.355,2.425-14.794s7.188-0.5,7.75,0s-2,15.375-2.75,16s-24.25,1.438-25,0.5s0.666-13.122,3.916-18.372
		s8.623-10.384,11.373-12.384s8.047-7.116,9.672-9.741s2.874-6.584,2.999-8.959s0.625-6.25-0.375-6.875s-4.834-0.544-5.584-0.044
		c-1.151,0.768-2.447,3.642-3.083,6.167C50.708,75,50.583,79.333,50.583,79.333z"/>
</g>
<g>
	<polygon fill="#004386" stroke="#004386" stroke-miterlimit="10" points="211.583,62.333 239.333,62.333 235.833,78.583 
		227.458,79.083 230.333,65 222.583,65 217.958,88.583 227.333,88.583 227.333,90.458 216.833,90.458 209.958,118.333 
		218.208,118.333 220.958,103.583 229.333,103.583 226.083,120.458 198.458,120.458 198.458,118.708 201.958,118.583 
		214.583,64.208 211.833,63.958 	"/>
	<polygon fill="#004386" stroke="#004386" stroke-width="0.25" stroke-miterlimit="10" points="211.583,62.333 239.333,62.333 
		235.833,78.583 227.458,79.083 230.333,65 222.583,65 217.958,88.583 227.333,88.583 227.333,90.458 216.833,90.458 
		209.958,118.333 218.208,118.333 220.958,103.583 229.333,103.583 226.083,120.458 198.458,120.458 198.458,118.708 
		201.958,118.583 214.583,64.208 211.833,63.958 	"/>
</g>
<g>
	<path fill="#004386" stroke="#004386" stroke-miterlimit="10" d="M152.083,62.271c3.877,0.104,9.375,0.125,10.5,3.938
		c0.672,2.277,0.25,7.75-0.125,9.25s-6.5,28.688-7.688,33.25s-2.5,7.875-5.062,9.875c-1.5,1.125-6.312,2.062-8.375,2.25
		c-2.062,0.188-9.438,0-11.375-1.875s-1.812-5.625-1.75-7.25s2.625-13.875,2.625-13.875l5.125-21c0,0,2.02-8.295,3.375-9.812
		C142.458,63.521,145.146,62.083,152.083,62.271z M142.833,82.333l-3.812,15.938c0,0-3.949,15.324-3.449,17.824
		s2.262,2.676,5.763,2.926c3.5,0.25,4.188-3.625,4.75-5.938c0.451-1.854,5.312-22.812,6.312-26.062s5-16.562,3.812-21.688
		c-0.509-2.196-5.813-1.97-8.438-0.333C145.333,66.521,142.833,82.333,142.833,82.333z"/>
	<path fill="#004386" stroke="#004386" stroke-width="0.25" stroke-miterlimit="10" d="M152.083,62.271
		c3.877,0.104,9.375,0.125,10.5,3.938c0.672,2.277,0.25,7.75-0.125,9.25s-6.5,28.688-7.688,33.25s-2.5,7.875-5.062,9.875
		c-1.5,1.125-6.312,2.062-8.375,2.25c-2.062,0.188-9.438,0-11.375-1.875s-1.812-5.625-1.75-7.25s2.625-13.875,2.625-13.875l5.125-21
		c0,0,2.02-8.295,3.375-9.812C142.458,63.521,145.146,62.083,152.083,62.271z M142.833,82.333l-3.812,15.938
		c0,0-3.949,15.324-3.449,17.824s2.262,2.676,5.763,2.926c3.5,0.25,4.188-3.625,4.75-5.938c0.451-1.854,5.312-22.812,6.312-26.062
		s5-16.562,3.812-21.688c-0.509-2.196-5.813-1.97-8.438-0.333C145.333,66.521,142.833,82.333,142.833,82.333z"/>
</g>
<g>
	<path fill="#004386" stroke="#004386" stroke-miterlimit="10" d="M172.917,62.417l15.418,0.083l0.082,1.25l-3.713,0.03
		c0,0-8.121,34.386-9.289,38.803c-1.166,4.417-2.834,9.917-2.666,12.5c0.166,2.583,1.584,3.499,2.916,3.583
		c1.334,0.084,3.916,0.5,5.334-1.5c1.416-2,2.5-7.083,3-10.083s10.92-43.498,10.92-43.498l-4.043-0.001l0.043-1.249h15.332
		l-0.131,1.249L203,63.46c0,0-4.584,19.876-5.584,24.292s-4.939,21.49-6.084,24.499c-2.125,5.582-6.418,7.916-8.834,8.75
		s-8.5,1.25-11,0.167s-5.832-1.751-6.666-5.667s2.082-13.667,3.166-16s8.752-35.875,8.752-35.875l-3.834,0.083V62.417z"/>
	<path fill="#004386" stroke="#004386" stroke-miterlimit="10" d="M172.917,62.417l15.418,0.083l0.082,1.25l-3.713,0.03
		c0,0-8.121,34.386-9.289,38.803c-1.166,4.417-2.834,9.917-2.666,12.5c0.166,2.583,1.584,3.499,2.916,3.583
		c1.334,0.084,3.916,0.5,5.334-1.5c1.416-2,2.5-7.083,3-10.083s10.92-43.498,10.92-43.498l-4.043-0.001l0.043-1.249h15.332
		l-0.131,1.249L203,63.46c0,0-4.584,19.876-5.584,24.292s-4.939,21.49-6.084,24.499c-2.125,5.582-6.418,7.916-8.834,8.75
		s-8.5,1.25-11,0.167s-5.832-1.751-6.666-5.667s2.082-13.667,3.166-16s8.752-35.875,8.752-35.875l-3.834,0.083V62.417z"/>
</g>
<g>
	<path fill="#004386" stroke="#004386" stroke-miterlimit="10" d="M270.674,79.594c-0.662,0.672-7.928,0.576-8.424,0.039
		s2.832-11.8,2.707-13.8s-2.125-2.5-4.5-2.5s-3.613,1.714-4.375,4.125c-0.789,2.499-2.455,11.666-1.25,14.75
		c1.367,3.499,5.752,8.877,6.877,10.627s3,5.875,2.875,8.625s-0.502,7.373-1.252,9.248s-2.875,5.5-4.625,6.875s-5,3.75-10.125,3.75
		s-7.75-0.75-9.375-2.75s-1.789-4.706-1.664-6.956s0.608-7.631,1.453-8.184c0.305-0.198,8.489-0.152,8.422,0.309
		c-0.205,1.407-4.082,12.75-2.031,14.579c1.583,1.412,5.406,1.337,6.57,0.502c2.094-1.502,4.238-15.038,4-17
		c-0.529-4.364-8.843-15.188-9.748-18.577c-0.99-3.71,0.197-12.831,1.623-15.173c1.877-3.083,3.875-5,6.25-6
		s11.584-1.325,13.834,0.3s4.416,4.95,4.541,7.575S271.338,78.923,270.674,79.594z"/>
	<path fill="#004386" stroke="#004386" stroke-width="0.25" stroke-miterlimit="10" d="M270.674,79.594
		c-0.662,0.672-7.928,0.576-8.424,0.039s2.832-11.8,2.707-13.8s-2.125-2.5-4.5-2.5s-3.613,1.714-4.375,4.125
		c-0.789,2.499-2.455,11.666-1.25,14.75c1.367,3.499,5.752,8.877,6.877,10.627s3,5.875,2.875,8.625s-0.502,7.373-1.252,9.248
		s-2.875,5.5-4.625,6.875s-5,3.75-10.125,3.75s-7.75-0.75-9.375-2.75s-1.789-4.706-1.664-6.956s0.608-7.631,1.453-8.184
		c0.305-0.198,8.489-0.152,8.422,0.309c-0.205,1.407-4.082,12.75-2.031,14.579c1.583,1.412,5.406,1.337,6.57,0.502
		c2.094-1.502,4.238-15.038,4-17c-0.529-4.364-8.843-15.188-9.748-18.577c-0.99-3.71,0.197-12.831,1.623-15.173
		c1.877-3.083,3.875-5,6.25-6s11.584-1.325,13.834,0.3s4.416,4.95,4.541,7.575S271.338,78.923,270.674,79.594z"/>
</g>
<g>
	<path fill="#004386" stroke="#004386" stroke-miterlimit="10" d="M99.333,62.396c0,0,22.75-0.812,24-0.062s4.395,3.549,3.062,9.688
		c-1.438,6.625-2.812,11.75-6.312,14.875c-2.591,2.313-5.375,2.562-5.375,2.562s5.062,2.938,5.688,5.312
		c0.626,2.373-1.688,10.562-2.062,12.688c-0.189,1.07-1.976,8.512-2.625,10.938c-0.144,0.537,1.617,0.141,2.373,0.396
		c0.757,0.257,0.424,1.479,0.292,1.915c-0.324,1.064-4.608,1.006-5.75,1c-1.179-0.006-5.458,0.184-6.333-0.816
		s6.418-25.683,6.292-27.683s-3-2.375-4.25-2.375s-3.938-0.062-4.688,2.062c-0.75,2.123-5.584,27.573-6.146,27.948
		c-1.704,1.136-8.708,0.948-10.333,0.572s-0.646-2.584-0.208-2.959s2.625,0.25,3.188-0.312c0.563-0.562,11.375-54,11.375-54
		l-2.169-0.006L99.333,62.396z M104.958,88.146c1,0.625,7.062,0.75,8.375-0.438s2.938-7.5,3.25-9.125s2.119-10.649,1.5-12.25
		c-0.431-1.113-6.562-1.333-7.688-0.312C109.116,67.182,103.958,87.521,104.958,88.146z"/>
	<path fill="#004386" stroke="#004386" stroke-width="0.25" stroke-miterlimit="10" d="M106.771,119.771
		c-0.875-1,5.938-24.562,5.812-26.562s-3-2.375-4.25-2.375s-3.938-0.062-4.688,2.062c-0.75,2.123-4.923,27.114-5.485,27.489
		c-1.704,1.136-8.953,0.573-10.577,0.197s-1.062-1.75-0.625-2.125s2.625,0.25,3.188-0.312c0.563-0.562,11.375-54,11.375-54
		l-2.169-0.006l-0.019-1.744c0,0,22.75-0.812,24-0.062s4.395,3.549,3.062,9.688c-1.438,6.625-2.812,11.75-6.312,14.875
		c-2.591,2.313-5.375,2.562-5.375,2.562s5.062,2.938,5.688,5.312c0.626,2.373-1.688,10.562-2.062,12.688
		c-0.189,1.07-1.976,8.512-2.625,10.938c-0.144,0.537,1.617,0.141,2.373,0.396c0.757,0.257,0.446,0.98,0.314,1.416 M104.958,88.146
		c1,0.625,7.062,0.75,8.375-0.438s2.938-7.5,3.25-9.125s2.119-10.649,1.5-12.25c-0.431-1.113-6.562-1.333-7.688-0.312
		C109.116,67.182,103.958,87.521,104.958,88.146z"/>
</g>
</svg>
